# xmcd
#
# Track frame offsets: 
#        183
#        13325
#        24068
#        44790
#        66303
#        78088
#        91550
#        104875
#        120033
#        144783
#        165678
#
# Disc length: 2391 seconds
#
# Revision: 8
# Processed by: cddbd v1.5.2PL0 Copyright (c) Steve Scherf et al.
# Submitted via: ExactAudioCopyFreeDBPlugin 1.0
#
DISCID=8009550b
DTITLE=John Mayall and The Bluesbreakers - Looking Back: Original Album 
DTITLE=*ReMastered
DYEAR=1964
DGENRE=Blues
TTITLE0=Mr James*
TTITLE1=Blues City Shake Down*
TTITLE2=They Call It Stormy Monday*
TTITLE3=So Many Roads*
TTITLE4=Looking Back*
TTITLE5=Sitting In The Rain*
TTITLE6=It Hurts Me Too*
TTITLE7=Double Trouble*
TTITLE8=Suspicions (Part 2)*
TTITLE9=Jenny*
TTITLE10=Picture On The Wall*
EXTD=Original Vinyl Compilation: Deram/Decca: 1969\nFirst ReMastered C
EXTD=D Version: Polydor: 1990\nThis ReMastered CD Version: Deram/Decca
EXTD=: 2000
EXTT0=
EXTT1=
EXTT2=
EXTT3=
EXTT4=
EXTT5=
EXTT6=
EXTT7=
EXTT8=
EXTT9=
EXTT10=
PLAYORDER=
